<svg data-v-423bf9ae="" xmlns="http://www.w3.org/2000/svg" viewBox="0 0 653.5510588651589 163" class="iconAbove"><!----><!----><!----><g data-v-423bf9ae="" id="af83ef0f-55cb-4be9-9e13-56b44eb3e64b" fill="#000000" transform="matrix(3.680940848390982,0,0,3.680940848390982,-2.1717606357997283,104.50983748997905)"><path d="M1.92 2.51C1.92 3.30 2.27 4.07 3.04 4.58C1.48 5.05 0.59 6.48 0.59 7.84C0.59 9.30 1.40 10.61 3.23 10.61C4.48 10.61 5.94 10.21 6.92 9.23C7.01 9.13 7.04 9.02 7.04 8.92C7.04 8.78 6.96 8.65 6.80 8.58C6.03 9.16 5.05 9.38 4.23 9.38C3.08 9.38 2.56 8.53 2.56 7.59C2.56 6.45 3.33 5.18 4.72 5.08C4.84 4.93 4.89 4.73 4.86 4.55C3.88 4.31 3.43 3.43 3.43 2.55C3.43 1.53 4.03 0.50 5.11 0.50C5.68 0.50 5.94 0.90 5.94 1.33C5.94 1.76 5.68 2.24 5.25 2.37C5.40 2.76 5.84 2.93 6.06 2.93C6.76 2.93 7.21 2.24 7.21 1.46C7.21 0.56 6.55-0.28 4.93-0.28C3.01-0.28 1.92 1.13 1.92 2.51ZM9.84 1.27C9.94 0.74 9.67 0.50 9.17 0.50C8.58 0.50 8.08 0.80 7.60 1.18C7.32 1.40 7.42 1.83 7.60 1.95C7.73 1.83 7.81 1.78 7.88 1.78C8.01 1.78 8.08 1.90 8.02 2.13L6.27 10.43C6.44 10.54 6.68 10.61 6.93 10.61C7.41 10.61 7.91 10.37 8.04 9.73L8.54 7.36L8.86 7.28C9.07 8.37 9.44 10.61 10.84 10.61C11.42 10.61 12.39 9.84 12.89 9.23C12.98 9.13 13.02 9.02 13.02 8.92C13.02 8.78 12.94 8.65 12.78 8.58C12.42 8.92 12.11 9.17 11.83 9.17C10.86 9.17 10.46 7.67 10.26 6.86C11.14 6.44 12.03 5.60 12.01 4.48C12.01 3.72 11.76 3.43 11.23 3.43C10.74 3.43 10.32 3.70 10.14 4.07C10.28 4.28 10.33 4.55 10.33 4.94C10.33 5.78 9.87 6.30 8.97 6.57L8.69 6.64ZM16.16 3.37C14.21 3.37 12.63 5.81 12.63 8.26C12.63 9.16 12.92 10.61 14.38 10.61C15.18 10.61 15.92 10.02 16.51 9.20C16.49 10.30 17.15 10.61 17.81 10.61C18.56 10.61 19.57 9.97 20.23 9.23C20.31 9.13 20.36 9.02 20.36 8.92C20.36 8.78 20.27 8.65 20.12 8.58C19.77 8.93 19.17 9.28 18.65 9.28C18.28 9.28 18.06 9.03 18.23 8.25L19.21 3.61C19.04 3.50 18.80 3.43 18.55 3.43C18.20 3.43 17.84 3.56 17.60 3.84C17.25 3.53 16.79 3.37 16.16 3.37ZM16.53 8.29C16.16 8.81 15.57 9.17 15.12 9.17C14.69 9.17 14.36 8.86 14.36 8.16C14.36 6.64 14.97 4.42 16.66 4.42C16.87 4.42 17.08 4.45 17.32 4.54ZM21.43 10.61C23.49 10.61 24.30 9.60 24.30 8.25C24.30 6.47 22.01 6.79 22.01 5.31C22.01 4.55 22.44 4.17 22.82 4.17C23.16 4.17 23.45 4.41 23.45 4.93C23.45 5.21 23.35 5.52 23.21 5.68C23.39 5.81 23.59 5.87 23.77 5.88C24.29 5.91 24.75 5.52 24.75 4.73C24.75 3.82 24.18 3.37 22.99 3.37C21.36 3.37 20.59 4.41 20.59 5.53C20.59 7.63 22.90 7.50 22.90 8.57C22.90 9.25 22.33 9.69 21.80 9.69C21.35 9.69 20.92 9.41 20.92 8.76C20.92 8.43 21.03 8.09 21.21 7.88C21.06 7.74 20.87 7.69 20.65 7.69C19.96 7.69 19.56 8.19 19.46 8.76C19.31 9.70 19.94 10.61 21.43 10.61ZM28.63 3.37C26.52 3.37 25.05 6.02 25.05 8.13C25.05 9.45 25.66 10.61 27.10 10.61C29.30 10.61 30.80 7.97 30.80 5.88C30.80 4.51 30.16 3.37 28.63 3.37ZM28.94 4.44C29.51 4.44 29.75 5.01 29.75 5.77C29.75 7.24 28.85 9.39 27.75 9.39C27.26 9.39 26.84 8.92 26.84 7.69C26.84 6.31 27.66 4.44 28.94 4.44ZM31.75 4.87C31.88 4.76 31.96 4.70 32.03 4.70C32.16 4.70 32.23 4.83 32.17 5.05L31.02 10.43C31.19 10.54 31.43 10.61 31.68 10.61C32.19 10.61 32.72 10.37 32.86 9.73L33.71 5.74C34.02 5.36 34.58 5.01 34.96 5.01C35.27 5.01 35.46 5.25 35.34 5.84L34.75 8.62C34.40 10.26 35.14 10.61 35.84 10.61C36.78 10.61 37.72 9.97 38.37 9.23C38.46 9.13 38.50 9.02 38.50 8.92C38.50 8.78 38.42 8.65 38.26 8.58C37.91 8.93 37.31 9.28 36.79 9.28C36.51 9.28 36.33 9.11 36.41 8.71L37.10 5.49C37.42 4.02 36.89 3.43 36.15 3.43C35.34 3.43 34.44 3.99 33.85 4.83L33.99 4.20C34.12 3.67 33.82 3.43 33.32 3.43C32.73 3.43 32.23 3.72 31.75 4.10C31.47 4.33 31.57 4.76 31.75 4.87ZM43.39 10.43C43.54 10.54 43.81 10.61 44.13 10.61C44.65 10.61 45.19 10.37 45.33 9.72L46.05 6.30L46.26 6.30C48.57 6.30 50.51 4.68 50.51 2.16C50.51 0.84 49.56-0.28 47.10-0.28C44.37-0.28 42.21 0.64 42.21 2.30C42.21 3.00 42.63 3.63 43.34 3.63C43.54 3.63 43.74 3.58 43.95 3.49C43.78 3.29 43.67 3.04 43.67 2.67C43.67 1.62 44.46 0.39 46.82 0.39C48.23 0.39 48.79 1.25 48.79 2.27C48.79 4.21 47.64 5.57 46.19 5.64L47.17 1.02C47.00 0.91 46.76 0.84 46.51 0.84C46.02 0.84 45.49 1.06 45.35 1.71ZM54.84 10.61C55.78 10.61 56.71 9.97 57.37 9.23C57.46 9.13 57.50 9.02 57.50 8.92C57.50 8.78 57.41 8.65 57.26 8.58C56.91 8.93 56.31 9.28 55.79 9.28C55.51 9.28 55.33 9.11 55.41 8.71L56.10 5.49C56.45 3.84 55.48 3.43 54.78 3.43C54.07 3.43 53.45 3.95 52.92 4.70L53.65 1.27C53.76 0.74 53.48 0.50 52.98 0.50C52.22 0.50 51.21 1.18 51.21 1.50C51.21 1.61 51.23 1.75 51.42 1.93C51.65 1.67 51.91 1.75 51.83 2.13L50.05 10.47C50.22 10.58 50.39 10.61 50.64 10.61C51.14 10.61 51.67 10.37 51.81 9.73L52.70 5.75C53.07 5.31 53.49 5.01 54.00 5.01C54.46 5.01 54.43 5.39 54.33 5.84L53.75 8.62C53.40 10.26 54.14 10.61 54.84 10.61ZM60.63 3.37C58.69 3.37 57.11 5.81 57.11 8.26C57.11 9.16 57.40 10.61 58.86 10.61C59.65 10.61 60.40 10.02 60.98 9.20C60.97 10.30 61.63 10.61 62.29 10.61C63.04 10.61 64.05 9.97 64.71 9.23C64.79 9.13 64.83 9.02 64.83 8.92C64.83 8.78 64.75 8.65 64.60 8.58C64.25 8.93 63.64 9.28 63.13 9.28C62.76 9.28 62.54 9.03 62.71 8.25L63.69 3.61C63.52 3.50 63.28 3.43 63.03 3.43C62.68 3.43 62.31 3.56 62.08 3.84C61.73 3.53 61.26 3.37 60.63 3.37ZM61.01 8.29C60.63 8.81 60.05 9.17 59.60 9.17C59.16 9.17 58.84 8.86 58.84 8.16C58.84 6.64 59.44 4.42 61.14 4.42C61.35 4.42 61.56 4.45 61.80 4.54ZM67.03 4.20C67.14 3.67 66.86 3.43 66.36 3.43C65.77 3.43 65.27 3.72 64.79 4.10C64.51 4.33 64.61 4.76 64.79 4.87C64.92 4.76 65.00 4.70 65.07 4.70C65.20 4.70 65.25 4.83 65.21 5.05L64.06 10.43C64.23 10.54 64.47 10.61 64.72 10.61C65.23 10.61 65.76 10.37 65.90 9.73L66.07 8.88C66.78 5.64 67.44 5.01 67.90 5.01C68.19 5.01 68.33 5.17 68.33 5.36C68.33 5.53 68.28 5.71 68.18 5.80C68.31 5.84 68.46 5.85 68.59 5.85C69.31 5.85 69.71 5.17 69.71 4.54C69.71 3.96 69.36 3.43 68.68 3.43C68.04 3.43 67.44 3.82 66.88 4.96ZM72.23 4.20C72.35 3.67 72.06 3.43 71.55 3.43C70.97 3.43 70.46 3.72 69.99 4.10C69.71 4.33 69.80 4.76 69.99 4.87C70.11 4.76 70.20 4.70 70.27 4.70C70.39 4.70 70.46 4.83 70.41 5.05L69.26 10.43C69.43 10.54 69.66 10.61 69.92 10.61C70.42 10.61 70.95 10.37 71.09 9.73L71.95 5.74C72.32 5.29 72.73 5.01 73.23 5.01C73.70 5.01 73.67 5.39 73.57 5.84L72.59 10.43C72.76 10.54 73.00 10.61 73.25 10.61C73.75 10.61 74.28 10.37 74.42 9.73L75.29 5.66C75.66 5.26 76.03 5.01 76.51 5.01C76.97 5.01 76.96 5.39 76.85 5.84L76.26 8.62C75.91 10.26 76.65 10.61 77.35 10.61C78.29 10.61 79.23 9.97 79.88 9.23C79.97 9.13 80.01 9.02 80.01 8.92C80.01 8.78 79.93 8.65 79.77 8.58C79.42 8.93 78.82 9.28 78.30 9.28C78.02 9.28 77.84 9.11 77.92 8.71L78.61 5.49C78.97 3.85 78.06 3.43 77.43 3.43C76.62 3.43 75.92 4.03 75.33 4.87C75.38 3.88 74.73 3.43 74.16 3.43C73.36 3.43 72.66 4.00 72.09 4.83ZM83.15 3.37C81.20 3.37 79.62 5.81 79.62 8.26C79.62 9.16 79.91 10.61 81.37 10.61C82.17 10.61 82.91 10.02 83.50 9.20C83.48 10.30 84.14 10.61 84.80 10.61C85.55 10.61 86.56 9.97 87.22 9.23C87.30 9.13 87.35 9.02 87.35 8.92C87.35 8.78 87.26 8.65 87.11 8.58C86.76 8.93 86.16 9.28 85.64 9.28C85.27 9.28 85.05 9.03 85.22 8.25L86.20 3.61C86.03 3.50 85.79 3.43 85.54 3.43C85.19 3.43 84.83 3.56 84.59 3.84C84.24 3.53 83.78 3.37 83.15 3.37ZM83.52 8.29C83.15 8.81 82.56 9.17 82.11 9.17C81.68 9.17 81.35 8.86 81.35 8.16C81.35 6.64 81.96 4.42 83.65 4.42C83.86 4.42 84.07 4.45 84.31 4.54ZM93.28 8.36C93.44 8.11 93.30 7.81 92.93 7.88C92.33 8.68 91.04 9.39 90.03 9.39C89.28 9.39 88.69 8.99 88.69 7.88C88.69 5.87 89.60 4.37 90.38 4.37C90.73 4.37 90.90 4.51 90.90 4.77C90.90 4.97 90.83 5.35 90.68 5.68C90.83 5.82 91.06 5.88 91.24 5.88C91.76 5.88 92.22 5.52 92.22 4.73C92.22 3.82 91.66 3.37 90.52 3.37C88.42 3.37 86.95 5.95 86.95 8.11C86.95 9.83 88.02 10.61 89.33 10.61C90.69 10.61 92.32 9.77 93.28 8.36ZM92.88 7.92C92.60 9.23 92.68 10.60 94.07 10.60C94.77 10.60 95.40 10.14 95.94 9.45C95.83 9.83 95.75 10.18 95.65 10.51C93.32 11.55 91.42 12.39 91.42 14.17C91.42 15.33 92.33 15.89 93.11 15.89C95.61 15.89 96.64 13.13 97.29 10.53C98.28 10.07 99.23 9.44 99.48 9.21C99.72 9.00 99.68 8.69 99.47 8.51C98.98 8.93 98.24 9.35 97.47 9.73C97.51 9.55 97.55 9.35 97.59 9.16L98.78 3.61C98.62 3.50 98.38 3.43 98.13 3.43C97.62 3.43 97.09 3.67 96.95 4.31L96.04 8.50C95.72 8.81 95.37 9.00 94.96 9.00C94.50 9.00 94.39 8.67 94.49 8.23L95.35 4.20C95.48 3.67 95.19 3.43 94.68 3.43C94.09 3.43 93.59 3.72 93.11 4.10C92.83 4.33 92.93 4.76 93.11 4.87C93.24 4.76 93.32 4.70 93.39 4.70C93.52 4.70 93.59 4.83 93.53 5.05ZM93.13 14.64C92.95 14.64 92.55 14.48 92.55 13.99C92.55 12.92 93.70 12.25 95.37 11.44C94.65 13.69 94.09 14.64 93.13 14.64ZM106.30 2.51C106.30 1.30 106.81 0.78 107.55 0.78C108.08 0.78 108.49 1.08 108.49 1.58C108.49 1.95 108.28 2.42 107.83 2.65C107.98 3.04 108.42 3.21 108.64 3.21C109.38 3.21 109.73 2.79 109.73 1.95C109.73 0.81 108.96 0 107.51 0C106.05 0 105.01 1.25 105.01 2.51C105.01 3.29 105.24 4.10 105.63 4.91C104.15 5.35 103.38 6.65 103.38 7.88C103.38 9.28 104.34 10.61 106.36 10.61C107.39 10.61 108.50 10.19 109.31 9.34C110.12 9.97 110.91 10.43 111.57 10.65C112.08 10.82 112.78 10.23 112.78 8.99C112.21 8.88 111.26 8.41 110.26 7.76C110.45 7.22 110.54 6.61 110.54 5.92C110.54 5.60 110.50 5.26 110.45 4.94C110.98 5.05 111.48 5.25 112.04 5.25C113.02 5.25 113.55 4.27 113.09 3.67C112.21 4.13 111.33 3.67 110.21 3.67C109.05 3.67 108.50 4.48 109.00 5.12C109.13 4.97 109.31 4.86 109.62 4.84C109.65 5.05 109.66 5.26 109.66 5.47C109.66 6.08 109.56 6.64 109.40 7.13C107.79 5.87 106.30 4.17 106.30 2.51ZM106.61 9.35C105.52 9.35 105.01 8.55 105.01 7.66C105.01 6.92 105.36 6.10 106.02 5.64C106.67 6.72 107.53 7.74 108.46 8.60C107.94 9.09 107.30 9.35 106.61 9.35ZM123.21-0.28C121.51-0.28 120.26 0.88 120.26 2.45C120.26 5.03 123.06 5.33 123.06 7.59C123.06 8.62 122.51 9.53 121.37 9.53C120.40 9.53 119.90 8.79 119.90 8.05C119.90 7.25 120.58 6.64 121.51 6.94C121.58 6.78 121.60 6.64 121.60 6.50C121.60 5.96 121.14 5.63 120.68 5.63C119.22 5.63 118.45 6.76 118.45 7.95C118.45 9.25 119.36 10.61 121.31 10.61C123.41 10.61 125.01 9.34 125.01 7.17C125.01 4.76 122.08 4.20 122.08 2.20C122.08 1.30 122.53 0.50 123.40 0.50C123.98 0.50 124.25 0.94 124.25 1.40C124.25 1.86 123.98 2.37 123.54 2.51C123.69 2.90 124.12 3.07 124.35 3.07C125.06 3.07 125.48 2.42 125.48 1.69C125.48 0.77 124.81-0.28 123.21-0.28ZM129.05 4.31C129.49 4.31 129.71 3.95 129.64 3.50L128.62 3.50L129.01 1.65C128.84 1.54 128.60 1.47 128.35 1.47C127.85 1.47 127.32 1.71 127.18 2.35L126.92 3.50L126.64 3.50C126.21 3.50 125.99 3.86 126.06 4.31L126.76 4.31L125.86 8.54C125.54 10.08 126.10 10.61 126.95 10.61C127.89 10.61 128.95 9.97 129.61 9.23C129.70 9.13 129.74 9.02 129.74 8.92C129.74 8.78 129.65 8.65 129.50 8.58C129.15 8.93 128.55 9.28 128.03 9.28C127.67 9.28 127.44 9.03 127.61 8.25L128.44 4.31ZM132.92 3.37C130.80 3.37 129.33 6.02 129.33 8.13C129.33 9.45 129.95 10.61 131.39 10.61C133.59 10.61 135.09 7.97 135.09 5.88C135.09 4.51 134.44 3.37 132.92 3.37ZM133.22 4.44C133.80 4.44 134.04 5.01 134.04 5.77C134.04 7.24 133.14 9.39 132.03 9.39C131.54 9.39 131.12 8.92 131.12 7.69C131.12 6.31 131.95 4.44 133.22 4.44ZM138.28 4.20C138.39 3.67 138.11 3.43 137.61 3.43C137.02 3.43 136.51 3.72 136.04 4.10C135.76 4.33 135.86 4.76 136.04 4.87C136.16 4.76 136.25 4.70 136.32 4.70C136.44 4.70 136.50 4.83 136.46 5.05L135.31 10.43C135.48 10.54 135.72 10.61 135.97 10.61C136.47 10.61 137.00 10.37 137.14 9.73L137.31 8.88C138.03 5.64 138.68 5.01 139.15 5.01C139.44 5.01 139.58 5.17 139.58 5.36C139.58 5.53 139.52 5.71 139.43 5.80C139.55 5.84 139.71 5.85 139.83 5.85C140.56 5.85 140.95 5.17 140.95 4.54C140.95 3.96 140.60 3.43 139.93 3.43C139.29 3.43 138.68 3.82 138.12 4.96ZM145.61 4.72C145.61 4.09 145.29 3.37 144.02 3.37C141.71 3.37 140.50 6.29 140.50 8.11C140.50 9.83 141.57 10.61 142.88 10.61C144.24 10.61 145.87 9.77 146.83 8.36C146.99 8.11 146.85 7.81 146.48 7.88C145.88 8.68 144.59 9.39 143.58 9.39C142.94 9.39 142.42 9.11 142.28 8.36C144.98 6.86 145.61 5.91 145.61 4.72ZM144.12 4.47C144.35 4.47 144.52 4.69 144.52 5.01C144.52 5.92 143.60 6.90 142.24 7.76C142.28 6.78 142.73 4.47 144.12 4.47ZM147.36 10.61C149.42 10.61 150.23 9.60 150.23 8.25C150.23 6.47 147.94 6.79 147.94 5.31C147.94 4.55 148.37 4.17 148.75 4.17C149.09 4.17 149.38 4.41 149.38 4.93C149.38 5.21 149.28 5.52 149.14 5.68C149.32 5.81 149.52 5.87 149.70 5.88C150.22 5.91 150.68 5.52 150.68 4.73C150.68 3.82 150.11 3.37 148.92 3.37C147.29 3.37 146.52 4.41 146.52 5.53C146.52 7.63 148.83 7.50 148.83 8.57C148.83 9.25 148.26 9.69 147.73 9.69C147.28 9.69 146.85 9.41 146.85 8.76C146.85 8.43 146.96 8.09 147.14 7.88C146.99 7.74 146.80 7.69 146.58 7.69C145.89 7.69 145.49 8.19 145.39 8.76C145.24 9.70 145.87 10.61 147.36 10.61ZM160.48 0.73C160.80 0.73 160.97 0.45 160.97 0.18C160.97 0.04 160.92-0.10 160.78-0.18C160.17 0.15 158.98-0.41 157.82-0.41C156.56-0.42 155.47-0.01 155.47 1.55C155.47 2.28 155.93 3.01 157.23 2.67C157.11 2.42 157.04 2.18 157.04 1.95C157.04 1.08 157.58 0.46 158.66 0.43L157.15 7.60C157.07 7.95 156.98 8.25 156.87 8.51C156.48 8.41 156.07 8.36 155.65 8.36C153.94 8.36 153.61 10.58 155.32 10.58C156.09 10.58 156.86 10.39 157.51 9.84C158.00 10.25 158.65 10.61 159.81 10.61C161.17 10.61 162.36 9.28 162.36 8.92C162.36 8.78 162.27 8.65 162.12 8.58C161.80 8.88 161.14 9.27 160.15 9.27C159.53 9.27 158.91 9.10 158.27 8.90C158.55 8.44 158.77 7.85 158.94 7.11L160.33 0.73ZM155.58 9.53C154.73 9.53 154.95 8.82 155.67 8.82C156.02 8.82 156.30 8.92 156.53 9.06C156.28 9.37 155.95 9.53 155.58 9.53ZM164.02 2.86C164.02 1.27 165.19 0.56 166.18 0.56C166.24 0.56 166.31 0.57 166.38 0.59L164.15 10.43C164.30 10.54 164.57 10.61 164.89 10.61C165.41 10.61 165.96 10.37 166.10 9.72L167.90 1.20C168.50 1.47 169.12 1.72 169.58 1.72C170.59 1.72 171.26 0.87 170.95-0.39C169.34 0.32 168.00-0.28 166.45-0.28C165.12-0.28 162.57 0.21 162.57 2.51C162.57 3.18 162.99 3.81 163.72 3.81C163.90 3.81 164.09 3.77 164.30 3.67C164.11 3.44 164.02 3.09 164.02 2.86ZM169.60 8.36C168.66 8.36 168.14 9.03 168.14 9.63C168.14 10.25 168.67 10.61 169.39 10.61C169.97 10.61 170.66 10.47 171.29 10.00C171.78 10.33 172.37 10.61 173.14 10.61C176.34 10.61 178.14 7 178.14 3.89C178.14 1.67 176.96-0.28 174.03-0.28C170.72-0.28 169.09 0.90 169.09 2.30C169.09 3.00 169.51 3.63 170.23 3.63C170.42 3.63 170.62 3.58 170.83 3.49C170.66 3.29 170.55 3.04 170.55 2.67C170.55 1.48 171.53 0.39 173.77 0.39C175.62 0.39 176.33 2.03 176.33 3.92C176.33 6.55 175.21 9.72 172.94 9.72C172.55 9.72 172.20 9.60 171.86 9.45C172.28 8.92 172.65 8.16 172.89 7.11L174.22 1.02C174.05 0.91 173.80 0.84 173.54 0.84C173.03 0.84 172.48 1.08 172.34 1.74L171.09 7.60C170.98 8.08 170.84 8.46 170.67 8.74C170.31 8.53 169.96 8.36 169.60 8.36ZM169.48 9.58C169.19 9.58 168.98 9.44 168.98 9.23C168.98 9.03 169.22 8.82 169.61 8.82C169.83 8.82 170.06 8.97 170.32 9.20C170.04 9.48 169.74 9.58 169.48 9.58Z"></path></g><defs data-v-423bf9ae=""><linearGradient data-v-423bf9ae="" gradientTransform="rotate(25)" id="ae2ed14c-1040-413a-a6c4-775a9b85cdd2" x1="0%" y1="0%" x2="100%" y2="0%"><stop data-v-423bf9ae="" offset="0%" style="stop-color: rgb(78, 26, 112); stop-opacity: 1;"></stop><stop data-v-423bf9ae="" offset="100%" style="stop-color: rgb(43, 76, 242); stop-opacity: 1;"></stop></linearGradient></defs><g data-v-423bf9ae="" id="d21da9f7-d278-4c74-9718-950a9126d1e1" transform="matrix(2.3327536951808625,0,0,2.3327536951808625,210.36029218768624,0)" stroke="none" fill="url(#ae2ed14c-1040-413a-a6c4-775a9b85cdd2)"><path d="M79.258 13.76L50.017 0 20.742 13.69v1.569l58.518.027-.002-1.526zm-19.737-2.494h-18.75c-2.75 0-2.5.25-2.5-2.5s-.499-2.5 2.5-2.5h18.75c2.75 0 2.5-.25 2.5 2.5s.501 2.5-2.5 2.5zM5.75 9.26a.5.5 0 000 1h19.968l2.138-1H5.75zM94.251 9.26H72.042l2.127 1h20.082c.275 0 .498-.223.498-.5s-.223-.5-.498-.5zM.585 14.176a.577.577 0 00-.141 1.14c.046.011 19.298.028 19.298.028v-1.167H.585zM99.416 14.176H80.258l.001 1.167s19.272-.017 19.327-.034a.578.578 0 00-.17-1.133zM.314 16.312c.103.741.576 1.302 1.143 1.302h97.086c.566 0 1.039-.559 1.143-1.299-.078.016-99.299.013-99.372-.003zM98.899 18.576c-.116.023-26.189.038-26.189.038-.221 1.772-.223 4.261-.223 7.771 0 13.625-1.7 12.125 9.164 12.125h8.399c10.136 0 9.164 1.75 9.164-12.125-.063-3.55-.111-6.044-.315-7.809zM.915 18.522c-.174 1.783-.174 4.322-.174 7.951 0 13.286-1.751 11.787 9.085 12h8.328c10.586 0 8.837 2 9.086-12 0-3.563.134-6.078.14-7.86 0 .001-26.29-.037-26.465-.091zM71.706 18.614H28.38v.004c-.001.351-.008.732-.017 1.142h43.24c.028-.407.061-.791.103-1.146zM19.742 13.177l3.837-1.917H6.269a61.407 61.407 0 00-.016 1.917h13.489zM80.256 13.177H93.747c.002-.204.003-1.581-.016-1.917H76.292l3.964 1.917zM67.49 33.26v-12.5h-1v12.5h-8.749v-12.5H56.74v12.5h-6.25v-12.5h-.999v14.75H46.24V20.76h-1v14.75h-3.249V20.76H40.99v12.5h-6.499v-12.5h-1.002v12.5h-5.276c-.006 1.368-.046 2.421-.178 3.25h43.532c-.146-.825-.183-1.881-.171-3.25H67.49z"></path></g><!----></svg>